<svg viewBox="0 0 24 24" fill="none" xmlns="http://www.w3.org/2000/svg"><g clip-path="url(#a)" fill-rule="evenodd" clip-rule="evenodd"><path d="M1.42 17.668A11.998 11.998 0 0 0 12 24c2.8 0 5.375-.959 7.416-2.566l-4.141-3.246a7.003 7.003 0 0 1-9.823-3.708L1.42 17.668Z" fill="#34A853"/><path d="M12 0C7.137 0 2.95 2.893 1.065 7.05l4.143 3.248a7.003 7.003 0 0 1 10.714-4.097l4.031-3.187A11.955 11.955 0 0 0 12 0Z" fill="#EA4335"/><path d="M5.208 10.298 1.065 7.051A11.957 11.957 0 0 0 0 12c0 2.049.514 3.979 1.42 5.667l4.032-3.188A6.987 6.987 0 0 1 5 12c0-.587.072-1.157.208-1.702Z" fill="#FBBC05"/><path d="M19.416 21.434A11.979 11.979 0 0 0 24 12a11.97 11.97 0 0 0-4.047-8.986L15.922 6.2A6.993 6.993 0 0 1 19 12a7 7 0 0 1-3.725 6.188l4.141 3.246Z" fill="#4285F4"/></g><defs><clipPath id="a"><path fill="#fff" d="M0 0h24v24H0z"/></clipPath></defs></svg>